<svg version="1.1" xmlns="http://www.w3.org/2000/svg" viewBox="0 0 3620 2320" width="3620" height="2320">
  <!-- svg-source:excalidraw -->
  
  <defs>
    <style class="style-fonts">
      @font-face {
        font-family: "Virgil";
        src: url("https://excalidraw.com/Virgil.woff2");
      }
      @font-face {
        font-family: "Cascadia";
        src: url("https://excalidraw.com/Cascadia.woff2");
      }
    </style>
    
  </defs>
  <rect x="0" y="0" width="3620" height="2320" fill="#ffffff"></rect><g stroke-linecap="round" transform="translate(1910 110) rotate(0 850 500)"><path d="M32 0 C467.74 2.89, 903 2.47, 1668 0 M32 0 C472.99 -3.22, 914.59 -2.92, 1668 0 M1668 0 C1691.08 1.59, 1700.79 10.89, 1700 32 M1668 0 C1690.75 0.47, 1699.42 11.09, 1700 32 M1700 32 C1701.98 343.63, 1701.48 654.15, 1700 968 M1700 32 C1699.27 254.09, 1699.43 475.45, 1700 968 M1700 968 C1700.57 989.24, 1690 999.36, 1668 1000 M1700 968 C1700.53 988.28, 1691.2 998.24, 1668 1000 M1668 1000 C1204.98 999.33, 742.01 999.7, 32 1000 M1668 1000 C1092.74 1005.8, 517.59 1005.72, 32 1000 M32 1000 C9.51 1000.81, -1.64 990.19, 0 968 M32 1000 C12.95 999.96, -1.94 990.42, 0 968 M0 968 C2.64 729.17, 2.84 490.76, 0 32 M0 968 C-1.97 670.65, -2.39 372.92, 0 32 M0 32 C1.45 10.95, 12.47 1.08, 32 0 M0 32 C-0.02 11.28, 12.15 -1.04, 32 0" stroke="#1e1e1e" stroke-width="1" fill="none"></path></g><g transform="translate(2590 170) rotate(0 168.04794311523438 22.5)"><text x="168.04794311523438" y="0" font-family="Virgil, Segoe UI Emoji" font-size="36px" fill="#1e1e1e" text-anchor="middle" style="white-space: pre;" direction="ltr" dominant-baseline="text-before-edge">Choose Your Game!</text></g><g stroke-linecap="round" transform="translate(2110 310) rotate(0 250 200)"><path d="M32 0 C179 1.71, 324.74 2.58, 468 0 M32 0 C186.3 2.13, 340.36 2.34, 468 0 M468 0 C489.8 0.09, 500.73 9.38, 500 32 M468 0 C491.23 -2.16, 498.05 11.25, 500 32 M500 32 C500.94 137.96, 500.3 243.66, 500 368 M500 32 C498.11 130.12, 498.9 227.04, 500 368 M500 368 C499.46 389.97, 488.07 401.11, 468 400 M500 368 C498.86 387.35, 489.96 400.91, 468 400 M468 400 C319.01 398.49, 170.61 399.38, 32 400 M468 400 C309.18 400.51, 151.05 400.48, 32 400 M32 400 C9.26 399.02, -1.45 391.26, 0 368 M32 400 C10.56 401.44, -1.89 391.48, 0 368 M0 368 C0.94 239.99, 1.77 115.2, 0 32 M0 368 C-0.94 299.23, -1.05 230.4, 0 32 M0 32 C-1.5 11.17, 11.82 0.71, 32 0 M0 32 C-1.8 10.81, 10.29 1.83, 32 0" stroke="#1e1e1e" stroke-width="1" fill="none"></path></g><g stroke-linecap="round" transform="translate(2910 310) rotate(0 250 200)"><path d="M32 0 C190.85 -2.31, 348.84 -1.77, 468 0 M32 0 C125.27 -1.33, 219.06 -1.56, 468 0 M468 0 C489.98 -0.37, 501.09 9.17, 500 32 M468 0 C489.92 1.33, 500.81 8.86, 500 32 M500 32 C500.26 134.93, 500.52 236.68, 500 368 M500 32 C498.79 119.07, 499.44 204.16, 500 368 M500 368 C500.72 387.67, 488.56 400.93, 468 400 M500 368 C497.89 390.37, 489.94 398.01, 468 400 M468 400 C353.58 401.52, 238.95 401.64, 32 400 M468 400 C368.98 399.22, 268.91 399.01, 32 400 M32 400 C10.07 401.76, 0.75 388.82, 0 368 M32 400 C8.4 400.3, 1.41 388.76, 0 368 M0 368 C-1.19 276.14, -0.96 185.61, 0 32 M0 368 C-1.04 292.11, -1.14 215.65, 0 32 M0 32 C-0.27 12.43, 10.36 -1.59, 32 0 M0 32 C0.49 11.3, 11.39 1.49, 32 0" stroke="#1e1e1e" stroke-width="1" fill="none"></path></g><g stroke-linecap="round" transform="translate(2110 750) rotate(0 250 80)"><path d="M32 0 C172.53 -0.36, 312.5 -1.55, 468 0 M32 0 C166.78 -0.03, 300.39 0.7, 468 0 M468 0 C489.33 -1.48, 500.25 12.07, 500 32 M468 0 C490.8 0.77, 497.71 12, 500 32 M500 32 C498.4 69.41, 500.27 107.59, 500 128 M500 32 C501.32 68.19, 500.16 102.69, 500 128 M500 128 C501.06 147.38, 489.49 158.17, 468 160 M500 128 C500.22 149.27, 487.65 160.16, 468 160 M468 160 C374.58 159.99, 281.98 159.27, 32 160 M468 160 C304.63 162.5, 142.62 162.22, 32 160 M32 160 C11.28 158.34, 1.89 148.01, 0 128 M32 160 C10.75 160.29, 0.89 151.61, 0 128 M0 128 C-0.55 96.73, -1.23 66.44, 0 32 M0 128 C0.76 107.5, 1.81 86.8, 0 32 M0 32 C-1.8 8.8, 9.93 -1.22, 32 0 M0 32 C0.32 9.83, 11.6 -1.2, 32 0" stroke="#1e1e1e" stroke-width="1" fill="none"></path></g><g stroke-linecap="round" transform="translate(2910 750) rotate(0 250 80)"><path d="M32 0 C170.02 -0.42, 306.43 -1.54, 468 0 M32 0 C175.28 -2.04, 317.88 -1.36, 468 0 M468 0 C490.02 1.58, 498.24 8.84, 500 32 M468 0 C489.99 0.17, 499.43 10.31, 500 32 M500 32 C500.88 53.73, 499.99 78.06, 500 128 M500 32 C500.55 62.6, 499.08 92.64, 500 128 M500 128 C498.19 150.99, 490.44 161.64, 468 160 M500 128 C499.15 150.16, 490.97 160.59, 468 160 M468 160 C303.3 157.92, 139.56 158.46, 32 160 M468 160 C294.28 159.61, 121.01 159.78, 32 160 M32 160 C11.42 158.49, -0.86 149.65, 0 128 M32 160 C8.97 162.04, -1.82 149.48, 0 128 M0 128 C-0.08 94.24, 1.29 62.96, 0 32 M0 128 C0.22 103.55, -0.7 77.42, 0 32 M0 32 C-1.17 11.31, 10.23 1.38, 32 0 M0 32 C1.88 12.76, 11.83 1.33, 32 0" stroke="#1e1e1e" stroke-width="1" fill="none"></path></g><g stroke-linecap="round"><g transform="translate(2750 1010) rotate(0 0.010145727596849952 30.02275373315163)"><path d="M-0.12 -0.09 C-0.16 9.91, -0.14 49.97, -0.11 59.96 M0.08 0.19 C0.08 10.2, 0.18 50.16, 0.16 60.13" stroke="#1e1e1e" stroke-width="1" fill="none"></path></g><g transform="translate(2750 1010) rotate(0 0.010145727596849952 30.02275373315163)"><path d="M-10.12 31.95 C-6.42 42.34, -2.46 53.26, 0.16 60.13 M-10.12 31.95 C-7.93 38.4, -5.63 44.61, 0.16 60.13" stroke="#1e1e1e" stroke-width="1" fill="none"></path></g><g transform="translate(2750 1010) rotate(0 0.010145727596849952 30.02275373315163)"><path d="M10.4 31.93 C6.38 42.31, 2.63 53.23, 0.16 60.13 M10.4 31.93 C7.98 38.39, 5.67 44.61, 0.16 60.13" stroke="#1e1e1e" stroke-width="1" fill="none"></path></g></g><mask></mask><g transform="translate(2290 490) rotate(0 61.32598114013672 22.5)"><text x="61.32598114013672" y="0" font-family="Virgil, Segoe UI Emoji" font-size="36px" fill="#1e1e1e" text-anchor="middle" style="white-space: pre;" direction="ltr" dominant-baseline="text-before-edge">Game 1</text></g><g transform="translate(3090 490) rotate(0 69.26397705078125 22.5)"><text x="69.26397705078125" y="0" font-family="Virgil, Segoe UI Emoji" font-size="36px" fill="#1e1e1e" text-anchor="middle" style="white-space: pre;" direction="ltr" dominant-baseline="text-before-edge">Game 2</text></g><g transform="translate(2190 810) rotate(0 166.06793212890625 22.5)"><text x="166.06793212890625" y="0" font-family="Virgil, Segoe UI Emoji" font-size="36px" fill="#1e1e1e" text-anchor="middle" style="white-space: pre;" direction="ltr" dominant-baseline="text-before-edge">Game Description 1</text></g><g transform="translate(2982.061996459961 810) rotate(0 174.0059356689453 22.5)"><text x="174.0059356689453" y="0" font-family="Virgil, Segoe UI Emoji" font-size="36px" fill="#1e1e1e" text-anchor="middle" style="white-space: pre;" direction="ltr" dominant-baseline="text-before-edge">Game Description 2</text></g><g transform="translate(2590 970) rotate(0 163.60394287109375 17.5)"><text x="163.60394287109375" y="0" font-family="Virgil, Segoe UI Emoji" font-size="28px" fill="#1e1e1e" text-anchor="middle" style="white-space: pre;" direction="ltr" dominant-baseline="text-before-edge">(Scroll for more Games)</text></g><g transform="translate(2490 10) rotate(0 221.484375 21.600000000000023)"><text x="221.484375" y="0" font-family="Cascadia, Segoe UI Emoji" font-size="36px" fill="#1e1e1e" text-anchor="middle" style="white-space: pre;" direction="ltr" dominant-baseline="text-before-edge">Game Selection Screen</text></g><g stroke-linecap="round" transform="translate(1910 1310) rotate(0 850 500)"><path d="M32 0 C433.9 -1.43, 834.66 -1.18, 1668 0 M32 0 C456 -1.38, 879.53 -1.04, 1668 0 M1668 0 C1687.91 -1.21, 1701.13 9.12, 1700 32 M1668 0 C1689.55 1.59, 1701.65 11.43, 1700 32 M1700 32 C1702.02 222.31, 1701.82 412.37, 1700 968 M1700 32 C1696.63 334.82, 1696.77 637.86, 1700 968 M1700 968 C1700.8 989.65, 1689.78 999.87, 1668 1000 M1700 968 C1700.54 988.82, 1687.89 999.92, 1668 1000 M1668 1000 C1230.44 1003.13, 792.46 1002.47, 32 1000 M1668 1000 C1139.52 993.81, 610.34 993.52, 32 1000 M32 1000 C9.91 1000.31, 1.48 991.31, 0 968 M32 1000 C11.88 999.41, -2.05 987.71, 0 968 M0 968 C2.7 769.2, 2.74 571.8, 0 32 M0 968 C-1.75 730.39, -1.22 492.54, 0 32 M0 32 C-0.19 9.94, 12.18 0.58, 32 0 M0 32 C-0.82 10.07, 8.45 0.83, 32 0" stroke="#1e1e1e" stroke-width="1" fill="none"></path></g><g transform="translate(2490 1210) rotate(0 274.21875 21.600000000000023)"><text x="274.21875" y="0" font-family="Cascadia, Segoe UI Emoji" font-size="36px" fill="#1e1e1e" text-anchor="middle" style="white-space: pre;" direction="ltr" dominant-baseline="text-before-edge">Game 1 Screen (Black Jack)</text></g><g stroke-linecap="round" transform="translate(3310 2010) rotate(0 100 100)"><path d="M32 0 C68.59 -1.1, 104.77 -0.82, 168 0 M32 0 C61.31 -0.72, 91.15 -1.14, 168 0 M168 0 C188.38 -0.3, 198.45 12.25, 200 32 M168 0 C191.55 -0.09, 197.71 8.73, 200 32 M200 32 C202.84 76.7, 199.37 123.94, 200 168 M200 32 C198.21 63.59, 198.56 95.46, 200 168 M200 168 C198.9 188.3, 188.37 201.83, 168 200 M200 168 C201.83 189.73, 188.55 200.33, 168 200 M168 200 C129.44 201.55, 88.43 201.22, 32 200 M168 200 C128.63 199.45, 88.26 199.41, 32 200 M32 200 C10.14 201.48, 0.07 190.62, 0 168 M32 200 C11.25 198.83, -0.57 190.23, 0 168 M0 168 C0.78 127.31, -0.74 86.45, 0 32 M0 168 C0.73 134.9, 0.76 100.55, 0 32 M0 32 C-0.57 12.65, 8.91 0.02, 32 0 M0 32 C0.74 8.38, 11.87 0.95, 32 0" stroke="#1e1e1e" stroke-width="1" fill="none"></path></g><g transform="translate(3359.6360092163086 2065) rotate(0 50.363990783691406 45)"><text x="50.363990783691406" y="0" font-family="Virgil, Segoe UI Emoji" font-size="36px" fill="#1e1e1e" text-anchor="middle" style="white-space: pre;" direction="ltr" dominant-baseline="text-before-edge">Card</text><text x="50.363990783691406" y="45" font-family="Virgil, Segoe UI Emoji" font-size="36px" fill="#1e1e1e" text-anchor="middle" style="white-space: pre;" direction="ltr" dominant-baseline="text-before-edge">Count</text></g><g stroke-linecap="round" transform="translate(10 110) rotate(0 850 500)"><path d="M32 0 C597.67 -7, 1162.3 -6.34, 1668 0 M32 0 C544.8 -2.01, 1057.96 -2.61, 1668 0 M1668 0 C1690.13 -1.29, 1701.3 10.84, 1700 32 M1668 0 C1688.8 2.06, 1699.88 9.05, 1700 32 M1700 32 C1698.05 386.08, 1698.81 739.33, 1700 968 M1700 32 C1703.37 334.43, 1703.39 637.33, 1700 968 M1700 968 C1701.01 990.83, 1690.96 1001.38, 1668 1000 M1700 968 C1699.76 988.68, 1690.96 1000.03, 1668 1000 M1668 1000 C1259.79 1003.06, 852.81 1002.94, 32 1000 M1668 1000 C1091.9 999.24, 515.85 998.67, 32 1000 M32 1000 C10.02 998.8, -1.97 990.21, 0 968 M32 1000 C8.75 1001.37, -0.45 989.9, 0 968 M0 968 C-2.62 611.52, -3.41 256.16, 0 32 M0 968 C-4 758.78, -3.99 549.97, 0 32 M0 32 C0.82 11.9, 11.51 -1.94, 32 0 M0 32 C0.14 9.41, 12.29 2.27, 32 0" stroke="#1e1e1e" stroke-width="1" fill="none"></path></g><g transform="translate(730 10) rotate(0 147.65625 21.600000000000023)"><text x="147.65625" y="0" font-family="Cascadia, Segoe UI Emoji" font-size="36px" fill="#1e1e1e" text-anchor="middle" style="white-space: pre;" direction="ltr" dominant-baseline="text-before-edge">Account Screen</text></g><g stroke-linecap="round" transform="translate(510 310) rotate(0 350 50)"><path d="M25 0 C222.7 -1.75, 422.43 -0.91, 675 0 M25 0 C278.67 -0.31, 531.88 -0.89, 675 0 M675 0 C691.52 1.53, 699.38 8.35, 700 25 M675 0 C690.07 -0.18, 701.79 7.79, 700 25 M700 25 C698.04 38.47, 700.31 50.55, 700 75 M700 25 C700.42 36.79, 699.72 47.17, 700 75 M700 75 C698.35 91.24, 689.83 98.86, 675 100 M700 75 C699.66 93.59, 693.69 98.41, 675 100 M675 100 C432.6 99.75, 190.95 99.83, 25 100 M675 100 C526.33 102.25, 377.82 102.73, 25 100 M25 100 C9 101.14, -0.23 89.73, 0 75 M25 100 C9.07 101.14, 0.87 91.29, 0 75 M0 75 C-0.78 55.82, -0.65 34.81, 0 25 M0 75 C-0.21 60.92, 0.54 49.4, 0 25 M0 25 C-0.21 8.55, 10.13 1.14, 25 0 M0 25 C1.05 6.61, 7.49 -2, 25 0" stroke="#1e1e1e" stroke-width="1" fill="none"></path></g><g stroke-linecap="round" transform="translate(510 510) rotate(0 350 50)"><path d="M25 0 C184.3 -0.52, 344.39 0.53, 675 0 M25 0 C197.41 0.59, 370.4 0.55, 675 0 M675 0 C692.63 -1.68, 700.53 8.45, 700 25 M675 0 C692.25 -0.46, 699.2 7.7, 700 25 M700 25 C698.91 43.55, 701.24 64.47, 700 75 M700 25 C700.51 35.05, 700.61 46.52, 700 75 M700 75 C698.43 90.25, 692.02 101.53, 675 100 M700 75 C700.01 90.8, 693.04 102.16, 675 100 M675 100 C417.5 99.55, 161.07 99.11, 25 100 M675 100 C416.98 101.14, 159.08 100.69, 25 100 M25 100 C9.12 98.34, 0.68 92.42, 0 75 M25 100 C6.63 100.48, -0.69 89.38, 0 75 M0 75 C0.16 57.21, 0.59 41.18, 0 25 M0 75 C-0.35 59.65, -0.36 43.46, 0 25 M0 25 C-0.25 9.9, 7.77 -0.36, 25 0 M0 25 C1.68 6.66, 6.24 -1.68, 25 0" stroke="#1e1e1e" stroke-width="1" fill="none"></path></g><g stroke-linecap="round" transform="translate(510 710) rotate(0 150 50)"><path d="M25 0 C98.59 2.03, 171.9 3.09, 275 0 M25 0 C88.68 -0.03, 152.46 0.19, 275 0 M275 0 C293.56 1.44, 298.13 8.47, 300 25 M275 0 C293.57 -1.61, 297.88 6.72, 300 25 M300 25 C298.34 44.26, 301.39 60.94, 300 75 M300 25 C300.92 43.64, 300.44 62.92, 300 75 M300 75 C298.11 91.45, 290.39 98.41, 275 100 M300 75 C298.6 90.62, 292.42 98.39, 275 100 M275 100 C181.84 100.82, 84.26 100.75, 25 100 M275 100 C197.49 101.04, 120.51 101.27, 25 100 M25 100 C7.34 100.8, -0.42 90.47, 0 75 M25 100 C8.61 102.18, 1.22 93.71, 0 75 M0 75 C-1.1 66.24, -0.47 54.9, 0 25 M0 75 C0.2 57.37, -0.18 40.91, 0 25 M0 25 C1.08 9.66, 7.11 0.97, 25 0 M0 25 C-0.74 6.94, 7.95 -0.71, 25 0" stroke="#1e1e1e" stroke-width="1" fill="none"></path></g><g stroke-linecap="round" transform="translate(910 710) rotate(0 150 50)"><path d="M25 0 C122.6 -0.96, 221.26 -2.44, 275 0 M25 0 C96.79 1.25, 169.83 1.05, 275 0 M275 0 C293.25 0.77, 301.27 10.31, 300 25 M275 0 C291 -1.68, 299.24 8.52, 300 25 M300 25 C299.4 42.55, 299.98 61.18, 300 75 M300 25 C300.02 42.96, 300.43 59.91, 300 75 M300 75 C298.2 90.72, 293.09 98.66, 275 100 M300 75 C302 90.86, 292.68 101, 275 100 M275 100 C212.5 99.15, 151.91 100.76, 25 100 M275 100 C183.2 100.49, 91.79 100.73, 25 100 M25 100 C8.14 100.03, -1.26 91.86, 0 75 M25 100 C8.06 101, -2.11 89.5, 0 75 M0 75 C0.53 63.65, 1.41 52.2, 0 25 M0 75 C0.58 62.12, 0.5 47.1, 0 25 M0 25 C1.68 7.19, 9.68 -1.76, 25 0 M0 25 C-2.05 6.91, 6.23 0.61, 25 0" stroke="#1e1e1e" stroke-width="1" fill="none"></path></g><g transform="translate(990 750) rotate(0 72.53996276855469 22.5)"><text x="72.53996276855469" y="0" font-family="Virgil, Segoe UI Emoji" font-size="36px" fill="#1e1e1e" text-anchor="middle" style="white-space: pre;" direction="ltr" dominant-baseline="text-before-edge">Register</text></g><g transform="translate(810 350) rotate(0 44.207977294921875 22.5)"><text x="44.207977294921875" y="0" font-family="Virgil, Segoe UI Emoji" font-size="36px" fill="#1e1e1e" text-anchor="middle" style="white-space: pre;" direction="ltr" dominant-baseline="text-before-edge">Email</text></g><g transform="translate(790 550) rotate(0 82.36797332763672 22.5)"><text x="82.36797332763672" y="0" font-family="Virgil, Segoe UI Emoji" font-size="36px" fill="#1e1e1e" text-anchor="middle" style="white-space: pre;" direction="ltr" dominant-baseline="text-before-edge">Password</text></g><g transform="translate(610 750) rotate(0 56.98799133300781 22.5)"><text x="56.98799133300781" y="0" font-family="Virgil, Segoe UI Emoji" font-size="36px" fill="#1e1e1e" text-anchor="middle" style="white-space: pre;" direction="ltr" dominant-baseline="text-before-edge">Log In</text></g><g stroke-linecap="round" transform="translate(3310 110) rotate(0 150 50)"><path d="M25 0 C120.18 2.87, 213.08 2.57, 275 0 M25 0 C83.52 -1.19, 141.83 -0.72, 275 0 M275 0 C291.88 1.34, 299.8 8.58, 300 25 M275 0 C291.23 -0.96, 301.33 8.4, 300 25 M300 25 C300.99 41.89, 299.85 61.51, 300 75 M300 25 C300.87 38.41, 299.74 53.4, 300 75 M300 75 C298.49 90.73, 291.45 100.93, 275 100 M300 75 C300.94 92.12, 292.72 100.29, 275 100 M275 100 C202.37 98.33, 127.94 99.87, 25 100 M275 100 C180.52 100.34, 86.11 99.18, 25 100 M25 100 C8.01 98.23, -1.7 92.34, 0 75 M25 100 C7.99 101.16, 0.12 92.56, 0 75 M0 75 C1.89 60.96, 1.68 48.28, 0 25 M0 75 C0.12 63.46, -0.99 51.6, 0 25 M0 25 C-0.98 8.64, 8.19 -0.9, 25 0 M0 25 C1.98 6.12, 6.96 1.68, 25 0" stroke="#1e1e1e" stroke-width="1" fill="none"></path></g><g transform="translate(3410 150) rotate(0 54.66596984863281 22.5)"><text x="54.66596984863281" y="0" font-family="Virgil, Segoe UI Emoji" font-size="36px" fill="#1e1e1e" text-anchor="middle" style="white-space: pre;" direction="ltr" dominant-baseline="text-before-edge">Player</text></g><g stroke-linecap="round" transform="translate(3310 1310) rotate(0 150 50)"><path d="M25 0 C117.1 0.13, 208.54 0.91, 275 0 M25 0 C88.37 0.95, 152.52 0.67, 275 0 M275 0 C293.34 -0.36, 298.62 8.03, 300 25 M275 0 C292.57 1.14, 298.14 8.44, 300 25 M300 25 C299.75 37.77, 301.07 48.98, 300 75 M300 25 C299.57 38.05, 299.9 51.57, 300 75 M300 75 C298.36 92.73, 291.97 101.97, 275 100 M300 75 C299.59 93.47, 292.83 99.82, 275 100 M275 100 C194.22 101.71, 114.9 101.08, 25 100 M275 100 C176.65 101.99, 78.12 102.33, 25 100 M25 100 C8.95 101.06, -1.14 91.5, 0 75 M25 100 C7.46 101.69, -1.41 89.86, 0 75 M0 75 C-0.63 56.9, 1.98 37.65, 0 25 M0 75 C-0.13 64.15, 0 53.49, 0 25 M0 25 C-0.39 7.91, 8.59 -0.44, 25 0 M0 25 C-0.41 7.17, 7.31 2.12, 25 0" stroke="#1e1e1e" stroke-width="1" fill="none"></path></g><g transform="translate(3410 1350) rotate(0 54.66596984863281 22.5)"><text x="54.66596984863281" y="0" font-family="Virgil, Segoe UI Emoji" font-size="36px" fill="#1e1e1e" text-anchor="middle" style="white-space: pre;" direction="ltr" dominant-baseline="text-before-edge">Player</text></g><g stroke-linecap="round" transform="translate(2210 610) rotate(0 150 40)"><path d="M20 0 C86.09 -0.95, 151.86 -0.11, 280 0 M20 0 C80.52 1.36, 141.68 1.67, 280 0 M280 0 C294.58 -1.77, 301.23 7.6, 300 20 M280 0 C292.83 0.41, 298.2 6.55, 300 20 M300 20 C298.32 34.7, 301.93 48.01, 300 60 M300 20 C299.28 32.32, 300.4 45.23, 300 60 M300 60 C300.11 73.52, 292.14 78.01, 280 80 M300 60 C299.73 73.95, 292.85 81.9, 280 80 M280 80 C201.99 80.41, 124.69 82.51, 20 80 M280 80 C180.12 82.64, 81.34 82.64, 20 80 M20 80 C6.11 78.16, -0.01 71.72, 0 60 M20 80 C7.37 81.97, 0.23 72.81, 0 60 M0 60 C-0.72 48.25, -0.03 35.22, 0 20 M0 60 C-0.24 45.19, -0.26 29.12, 0 20 M0 20 C-1.21 8.46, 6.23 0.59, 20 0 M0 20 C1.59 5.48, 6 -1.23, 20 0" stroke="#1e1e1e" stroke-width="1" fill="none"></path></g><g transform="translate(2246.2580337524414 627.5) rotate(0 113.7419662475586 22.5)"><text x="113.7419662475586" y="0" font-family="Virgil, Segoe UI Emoji" font-size="36px" fill="#1e1e1e" text-anchor="middle" style="white-space: pre;" direction="ltr" dominant-baseline="text-before-edge">Create Room</text></g><g stroke-linecap="round" transform="translate(3010 610) rotate(0 150 40)"><path d="M20 0 C96.74 2.59, 172.21 1.19, 280 0 M20 0 C72.09 -0.84, 124.78 -0.9, 280 0 M280 0 C294.33 -0.41, 300.45 5.14, 300 20 M280 0 C292.75 0.96, 301.77 5.26, 300 20 M300 20 C299.35 29.28, 299.75 37.85, 300 60 M300 20 C299.49 33.45, 299.72 45.95, 300 60 M300 60 C298.01 74.26, 293.57 78.77, 280 80 M300 60 C301.48 75.61, 292.04 77.75, 280 80 M280 80 C222.99 80.62, 164.08 81.8, 20 80 M280 80 C203.88 79.11, 129.33 79.85, 20 80 M20 80 C5.95 78.77, -0.94 72.71, 0 60 M20 80 C5.8 80.15, 1.02 73.11, 0 60 M0 60 C0.85 42.67, 1.51 27.07, 0 20 M0 60 C-0.06 46.46, -1.13 33.68, 0 20 M0 20 C-0.49 7.56, 8.49 0.28, 20 0 M0 20 C-2.12 7.55, 6.62 -1.85, 20 0" stroke="#1e1e1e" stroke-width="1" fill="none"></path></g><g transform="translate(3046.2580337524414 627.5) rotate(0 113.7419662475586 22.5)"><text x="113.7419662475586" y="0" font-family="Virgil, Segoe UI Emoji" font-size="36px" fill="#1e1e1e" text-anchor="middle" style="white-space: pre;" direction="ltr" dominant-baseline="text-before-edge">Create Room</text></g><g stroke-linecap="round" transform="translate(2710 1510) rotate(0 50 100)"><path d="M25 0 C41.18 -1.56, 60.71 -0.76, 75 0 M25 0 C41.04 1.21, 59.16 -0.03, 75 0 M75 0 C92.09 -1.26, 98.3 7.05, 100 25 M75 0 C93.36 1.76, 98.8 9.88, 100 25 M100 25 C99.69 61.83, 99.92 101.38, 100 175 M100 25 C102.22 60.54, 101.02 98.09, 100 175 M100 175 C101.86 193.61, 90.84 200.08, 75 200 M100 175 C99.8 189.51, 91.47 197.8, 75 200 M75 200 C65.88 200.57, 55.22 201.28, 25 200 M75 200 C56.19 199.64, 37.14 199.65, 25 200 M25 200 C7.14 200.96, 0.26 191.73, 0 175 M25 200 C8.13 201.94, 0.52 190.19, 0 175 M0 175 C-2.92 143.34, -2.07 113.24, 0 25 M0 175 C0.35 121.17, 1.9 68.56, 0 25 M0 25 C1.84 8.44, 7.28 -1.75, 25 0 M0 25 C-1.15 6.86, 10.46 -1.87, 25 0" stroke="#1e1e1e" stroke-width="1" fill="none"></path></g><g transform="translate(2720 1590) rotate(0 41.68798065185547 22.5)"><text x="41.68798065185547" y="0" font-family="Virgil, Segoe UI Emoji" font-size="36px" fill="#1e1e1e" text-anchor="middle" style="white-space: pre;" direction="ltr" dominant-baseline="text-before-edge">Deck</text></g><g stroke-linecap="round" transform="translate(1910 1610) rotate(0 100 100)"><path d="M123.21 1.91 C135.2 3.17, 147.45 10.83, 157.64 18.3 C167.83 25.76, 177.47 35.72, 184.35 46.71 C191.23 57.69, 196.83 71.55, 198.93 84.19 C201.02 96.83, 199.75 110.26, 196.92 122.54 C194.09 134.82, 189.36 147.43, 181.96 157.87 C174.56 168.32, 163.29 178.51, 152.5 185.22 C141.71 191.92, 129.78 196.16, 117.23 198.09 C104.68 200.02, 89.61 199.57, 77.21 196.82 C64.81 194.07, 53.08 188.71, 42.8 181.59 C32.53 174.48, 22.49 165.06, 15.55 154.14 C8.6 143.23, 3.12 128.78, 1.11 116.1 C-0.91 103.42, 0.59 90.5, 3.45 78.06 C6.32 65.62, 11.22 51.91, 18.3 41.46 C25.38 31, 35.09 21.87, 45.92 15.35 C56.76 8.84, 68.83 4.09, 83.32 2.37 C97.81 0.66, 122.71 3.52, 132.88 5.05 C143.04 6.58, 144.69 9.71, 144.3 11.54 M70.49 5.27 C81.35 0.24, 95.94 -0.17, 108.74 0.71 C121.54 1.59, 135.98 4.68, 147.3 10.55 C158.63 16.42, 168.74 26.18, 176.71 35.93 C184.67 45.67, 191.04 56.71, 195.07 69.03 C199.11 81.35, 202.24 97.08, 200.92 109.86 C199.6 122.64, 193.44 134.48, 187.16 145.69 C180.89 156.9, 172.7 168.96, 163.28 177.12 C153.86 185.29, 142.52 191.09, 130.65 194.66 C118.77 198.24, 104.91 199.35, 92.05 198.56 C79.18 197.77, 64.76 195.85, 53.46 189.92 C42.16 184, 32.51 173.23, 24.22 163 C15.94 152.78, 7.8 140.65, 3.76 128.59 C-0.29 116.53, -1.14 103.05, -0.06 90.64 C1.02 78.22, 4.44 65.5, 10.24 54.11 C16.03 42.72, 24.78 30.56, 34.71 22.3 C44.64 14.05, 63.62 7.47, 69.82 4.59 C76.02 1.71, 71.49 3.31, 71.89 5.02" stroke="#1e1e1e" stroke-width="1" fill="none"></path></g><g stroke-linecap="round" transform="translate(3410 1610) rotate(0 100 100)"><path d="M99.66 0.21 C111.84 -1.53, 126.89 2.14, 138.7 6.97 C150.51 11.79, 161.64 20.19, 170.54 29.17 C179.43 38.14, 187.01 48.93, 192.06 60.8 C197.12 72.67, 200.97 87.61, 200.88 100.41 C200.79 113.21, 196.61 125.89, 191.51 137.62 C186.41 149.36, 179.06 161.79, 170.3 170.82 C161.55 179.84, 150.56 187.04, 138.98 191.79 C127.41 196.54, 113.73 199.05, 100.86 199.31 C88 199.57, 73.61 198.21, 61.81 193.35 C50.01 188.49, 39.19 179.41, 30.08 170.12 C20.97 160.83, 12.22 149.31, 7.16 137.61 C2.09 125.92, -0.24 112.48, -0.31 99.92 C-0.37 87.36, 1.98 74.1, 6.76 62.25 C11.54 50.39, 19.26 37.89, 28.36 28.8 C37.45 19.71, 47.69 12.6, 61.33 7.71 C74.96 2.82, 100.73 0.05, 110.17 -0.53 C119.61 -1.1, 118.39 2.34, 117.95 4.27 M146.82 12.95 C158.32 17.07, 168.21 26.72, 176.55 36.44 C184.9 46.16, 193.25 59.32, 196.89 71.27 C200.53 83.21, 199.78 95.36, 198.4 108.1 C197.01 120.84, 194.21 136.41, 188.59 147.71 C182.97 159, 174.52 167.67, 164.68 175.85 C154.83 184.03, 141.85 192.93, 129.51 196.8 C117.18 200.67, 103.12 200.47, 90.67 199.08 C78.22 197.7, 66.01 194.13, 54.82 188.49 C43.62 182.86, 31.74 175.12, 23.52 165.27 C15.3 155.43, 9.32 141.94, 5.51 129.44 C1.71 116.94, -0.53 102.99, 0.7 90.27 C1.92 77.56, 6.76 64.41, 12.85 53.14 C18.93 41.86, 27.53 30.77, 37.22 22.63 C46.9 14.48, 58.77 8.22, 70.96 4.28 C83.15 0.33, 97.71 -2.16, 110.35 -1.03 C122.98 0.1, 141 8.45, 146.77 11.04 C152.55 13.64, 145.8 13.07, 145.01 14.55" stroke="#1e1e1e" stroke-width="1" fill="none"></path></g><g transform="translate(1950 1670) rotate(0 58.715980529785156 45)"><text x="58.715980529785156" y="0" font-family="Virgil, Segoe UI Emoji" font-size="36px" fill="#1e1e1e" text-anchor="middle" style="white-space: pre;" direction="ltr" dominant-baseline="text-before-edge">Other </text><text x="58.715980529785156" y="45" font-family="Virgil, Segoe UI Emoji" font-size="36px" fill="#1e1e1e" text-anchor="middle" style="white-space: pre;" direction="ltr" dominant-baseline="text-before-edge">Player</text></g><g transform="translate(3450 1670) rotate(0 58.715980529785156 45)"><text x="58.715980529785156" y="0" font-family="Virgil, Segoe UI Emoji" font-size="36px" fill="#1e1e1e" text-anchor="middle" style="white-space: pre;" direction="ltr" dominant-baseline="text-before-edge">Other </text><text x="58.715980529785156" y="45" font-family="Virgil, Segoe UI Emoji" font-size="36px" fill="#1e1e1e" text-anchor="middle" style="white-space: pre;" direction="ltr" dominant-baseline="text-before-edge">Player</text></g><g stroke-linecap="round" transform="translate(2610 2010) rotate(0 50 100)"><path d="M25 0 C37.12 1.53, 46.75 1.08, 75 0 M25 0 C43.96 -0.1, 62.3 0.78, 75 0 M75 0 C89.94 -0.31, 98.68 7.9, 100 25 M75 0 C89.43 -2.06, 100.75 7.54, 100 25 M100 25 C101.76 76.88, 98.56 129.87, 100 175 M100 25 C100.51 83.37, 100.12 142.78, 100 175 M100 175 C100.45 193.08, 92.19 198.12, 75 200 M100 175 C98.46 192.94, 93.91 202.14, 75 200 M75 200 C57.37 200.62, 41.47 199.92, 25 200 M75 200 C54.44 200.48, 34.82 200.41, 25 200 M25 200 C9.99 201.08, -0.46 189.89, 0 175 M25 200 C9.62 200.95, -0.71 189.54, 0 175 M0 175 C0.99 114.41, 0.52 55.78, 0 25 M0 175 C0.19 124.98, 0.88 75.97, 0 25 M0 25 C1.97 9.15, 6.41 -0.88, 25 0 M0 25 C1.98 9.58, 9.34 1.9, 25 0" stroke="#1e1e1e" stroke-width="1" fill="none"></path></g><g transform="translate(2670 2090) rotate(0 86.79598236083984 22.5)"><text x="86.79598236083984" y="0" font-family="Virgil, Segoe UI Emoji" font-size="36px" fill="#1e1e1e" text-anchor="middle" style="white-space: pre;" direction="ltr" dominant-baseline="text-before-edge">Your Hand</text></g><g stroke-linecap="round" transform="translate(2810 2010) rotate(0 50 100)"><path d="M25 0 C42.18 1.58, 64 2.33, 75 0 M25 0 C42.23 0.62, 60.32 0.26, 75 0 M75 0 C93.66 1.04, 101.59 7.17, 100 25 M75 0 C91.86 -0.51, 100.04 10.24, 100 25 M100 25 C100.77 78.93, 99.04 129.35, 100 175 M100 25 C99.12 84.38, 98.89 144.73, 100 175 M100 175 C100.57 191.64, 90.91 200.34, 75 200 M100 175 C98.21 193.65, 90.42 202.27, 75 200 M75 200 C59.69 200.87, 41.8 201.43, 25 200 M75 200 C61.52 199.37, 48.62 199.7, 25 200 M25 200 C7.56 198.88, -0.58 193.38, 0 175 M25 200 C6.31 198.13, 0.95 190.7, 0 175 M0 175 C2.54 134.81, 2.67 92.04, 0 25 M0 175 C0.86 128.17, 0.45 83.64, 0 25 M0 25 C-0.47 9.67, 6.79 0.87, 25 0 M0 25 C2.29 7.67, 7.87 -1.33, 25 0" stroke="#1e1e1e" stroke-width="1" fill="none"></path></g><g stroke-linecap="round" transform="translate(2710 2010) rotate(0 50 100)"><path d="M25 0 C37.24 -1.78, 52 -1.3, 75 0 M25 0 C39 -0.52, 53.2 -0.92, 75 0 M75 0 C93.39 -1.09, 101.97 9.15, 100 25 M75 0 C89.45 -1.01, 101.98 9.58, 100 25 M100 25 C102.16 74.75, 100.81 127.76, 100 175 M100 25 C99.66 71.87, 101.08 118.45, 100 175 M100 175 C98.38 192.5, 90.83 199.53, 75 200 M100 175 C98.53 190.89, 93.48 201.48, 75 200 M75 200 C54.69 200.4, 36.61 198.21, 25 200 M75 200 C62.29 199.11, 48.68 200.88, 25 200 M25 200 C7.76 199.6, -1.16 193.42, 0 175 M25 200 C8.88 199.28, 0.86 193.16, 0 175 M0 175 C0.16 123.18, -1.61 74.03, 0 25 M0 175 C-1.11 137.38, -0.44 98.79, 0 25 M0 25 C-1.72 9.35, 7 0.43, 25 0 M0 25 C1.08 6.83, 6.58 0.37, 25 0" stroke="#1e1e1e" stroke-width="1" fill="none"></path></g><g stroke-linecap="round" transform="translate(1910 2210) rotate(0 150 50)"><path d="M25 0 C111.6 1.38, 199.68 2.52, 275 0 M25 0 C97.65 0.67, 170.98 0.76, 275 0 M275 0 C292.18 -0.6, 300.36 6.7, 300 25 M275 0 C291.32 -2.21, 297.79 9.55, 300 25 M300 25 C299.09 40.09, 299.46 52.55, 300 75 M300 25 C300.6 36.71, 299.69 49.18, 300 75 M300 75 C300.87 93.45, 292.63 98.04, 275 100 M300 75 C298.08 92.33, 293.32 98.48, 275 100 M275 100 C220.12 100.25, 166.23 100.96, 25 100 M275 100 C222.59 99.81, 168.95 99.82, 25 100 M25 100 C7.03 99.64, -1.84 90.38, 0 75 M25 100 C8.23 99.53, -1.89 89.68, 0 75 M0 75 C1.37 60.03, 1.95 40.58, 0 25 M0 75 C0.44 54.67, -0.8 35.2, 0 25 M0 25 C0.66 9.81, 6.78 1.47, 25 0 M0 25 C0.49 6.17, 6.09 0.05, 25 0" stroke="#1e1e1e" stroke-width="1" fill="none"></path></g><g transform="translate(1930 2250) rotate(0 47.537986755371094 22.5)"><text x="47.537986755371094" y="0" font-family="Virgil, Segoe UI Emoji" font-size="36px" fill="#1e1e1e" text-anchor="middle" style="white-space: pre;" direction="ltr" dominant-baseline="text-before-edge">Score</text></g><g stroke-linecap="round" transform="translate(2110 310) rotate(0 150 50)"><path d="M25 0 C108.22 -1.53, 195.29 -1, 275 0 M25 0 C102.95 -0.6, 181.44 -0.69, 275 0 M275 0 C291.67 1.39, 300.31 6.67, 300 25 M275 0 C292.24 1.31, 300.86 8.13, 300 25 M300 25 C299.11 37.32, 297.59 51.73, 300 75 M300 25 C301.27 41.44, 300.38 57.58, 300 75 M300 75 C298.01 90.94, 290.53 100.53, 275 100 M300 75 C300.68 91.76, 290.75 99.97, 275 100 M275 100 C223.52 99.93, 170.02 100, 25 100 M275 100 C199.65 99.05, 122.49 98.02, 25 100 M25 100 C9.54 100.85, -1.31 90.26, 0 75 M25 100 C10.34 100.77, 0.14 89.6, 0 75 M0 75 C0.61 64.1, -0.86 49.25, 0 25 M0 75 C-0.5 57.28, -0.61 38.34, 0 25 M0 25 C1.2 7.3, 8.89 -0.67, 25 0 M0 25 C1.34 9.86, 6.61 0.3, 25 0" stroke="#1e1e1e" stroke-width="1" fill="none"></path></g><g transform="translate(2150 350) rotate(0 109.56596374511719 22.5)"><text x="109.56596374511719" y="0" font-family="Virgil, Segoe UI Emoji" font-size="36px" fill="#1e1e1e" text-anchor="middle" style="white-space: pre;" direction="ltr" dominant-baseline="text-before-edge">Leaderboard</text></g><g stroke-linecap="round" transform="translate(2910 310) rotate(0 150 50)"><path d="M25 0 C110.51 0.5, 194.31 -0.61, 275 0 M25 0 C87.04 1.63, 147.75 1.46, 275 0 M275 0 C291.05 1.52, 301.16 6.58, 300 25 M275 0 C291.16 -2.15, 298.73 9.71, 300 25 M300 25 C299.09 39.17, 301.17 53.68, 300 75 M300 25 C300.22 43.97, 300.15 62.79, 300 75 M300 75 C300.56 90.04, 290.31 99.18, 275 100 M300 75 C300.07 92.26, 292.28 98.44, 275 100 M275 100 C215.03 100.83, 153.16 99.34, 25 100 M275 100 C201.89 102.02, 128.03 101.31, 25 100 M25 100 C7.46 99.42, 0.29 90.1, 0 75 M25 100 C6.27 102.11, 1.24 89.47, 0 75 M0 75 C1.62 58, 0.87 38, 0 25 M0 75 C-0.28 56.64, 1.25 36.55, 0 25 M0 25 C-1.72 7.68, 7.95 0.78, 25 0 M0 25 C-0.53 6.36, 10.36 -1.78, 25 0" stroke="#1e1e1e" stroke-width="1" fill="none"></path></g><g transform="translate(2950 350) rotate(0 109.56596374511719 22.5)"><text x="109.56596374511719" y="0" font-family="Virgil, Segoe UI Emoji" font-size="36px" fill="#1e1e1e" text-anchor="middle" style="white-space: pre;" direction="ltr" dominant-baseline="text-before-edge">Leaderboard</text></g><g stroke-linecap="round" transform="translate(10 1310) rotate(0 850 500)"><path d="M32 0 C373.81 6.36, 716.72 5.03, 1668 0 M32 0 C551.19 3.02, 1071.17 2.27, 1668 0 M1668 0 C1688.66 -1.87, 1699.88 12.62, 1700 32 M1668 0 C1689.31 -1.15, 1701.93 12.31, 1700 32 M1700 32 C1699.15 346.35, 1698.7 661.75, 1700 968 M1700 32 C1699.3 398.81, 1698.97 765.14, 1700 968 M1700 968 C1698.36 988.44, 1689.12 999.9, 1668 1000 M1700 968 C1699.76 987.3, 1691.35 999.56, 1668 1000 M1668 1000 C1180.46 1004.3, 692.04 1003.41, 32 1000 M1668 1000 C1170.57 1005.88, 673.79 1006.46, 32 1000 M32 1000 C8.71 1000.51, -0.86 990.8, 0 968 M32 1000 C10.53 1000.57, 0.02 987.42, 0 968 M0 968 C0.03 620.01, 0.92 271.08, 0 32 M0 968 C-0.58 736.5, -1.05 504.08, 0 32 M0 32 C-1.97 10.33, 9.01 -1.37, 32 0 M0 32 C1.24 10.32, 10.03 -1.39, 32 0" stroke="#1e1e1e" stroke-width="1" fill="none"></path></g><g transform="translate(670 1210) rotate(0 189.84375 21.600000000000023)"><text x="189.84375" y="0" font-family="Cascadia, Segoe UI Emoji" font-size="36px" fill="#1e1e1e" text-anchor="middle" style="white-space: pre;" direction="ltr" dominant-baseline="text-before-edge">Leaderboard Screen</text></g><g stroke-linecap="round" transform="translate(110 1510) rotate(0 740 49.333333333333314)"><path d="M24.67 0 C586.7 5.37, 1149.74 4.16, 1455.33 0 M24.67 0 C529.28 1.39, 1034.41 1.02, 1455.33 0 M1455.33 0 C1471.89 1.16, 1481.49 7.2, 1480 24.67 M1455.33 0 C1470.93 2.05, 1481.28 9.66, 1480 24.67 M1480 24.67 C1480.08 39.92, 1481.83 56.6, 1480 74 M1480 24.67 C1480.03 35.63, 1480.79 47.7, 1480 74 M1480 74 C1480.84 89.62, 1471.37 97.89, 1455.33 98.67 M1480 74 C1478.26 90.07, 1473.03 100.01, 1455.33 98.67 M1455.33 98.67 C978.86 102.87, 502.38 103.15, 24.67 98.67 M1455.33 98.67 C946.81 92.86, 437.22 93.07, 24.67 98.67 M24.67 98.67 C9.58 98.82, 1.24 91.3, 0 74 M24.67 98.67 C7.52 97.84, -0.93 90.54, 0 74 M0 74 C-0.1 62.01, -2.19 46.44, 0 24.67 M0 74 C-0.87 57.78, 0.41 40.2, 0 24.67 M0 24.67 C-0.58 8.99, 9.12 -0.06, 24.67 0 M0 24.67 C-1.77 7.91, 9.66 2.18, 24.67 0" stroke="#1e1e1e" stroke-width="1" fill="none"></path></g><g stroke-linecap="round" transform="translate(110 1608.6666666666665) rotate(0 740 49.333333333333314)"><path d="M24.67 0 C495.08 0.11, 966 0.38, 1455.33 0 M24.67 0 C565.06 -4.95, 1104.6 -5.44, 1455.33 0 M1455.33 0 C1470.78 -1.1, 1479.86 7.01, 1480 24.67 M1455.33 0 C1472.08 1.3, 1480.88 6.96, 1480 24.67 M1480 24.67 C1478.39 36.22, 1479.4 48.75, 1480 74 M1480 24.67 C1479.26 38.06, 1480.28 53.69, 1480 74 M1480 74 C1479.11 89.65, 1472 97.55, 1455.33 98.67 M1480 74 C1480.58 91.05, 1470.37 99.23, 1455.33 98.67 M1455.33 98.67 C908.47 96.54, 362.01 96.25, 24.67 98.67 M1455.33 98.67 C1163.44 94.38, 871.66 94.5, 24.67 98.67 M24.67 98.67 C8.68 97.12, 0.74 90.04, 0 74 M24.67 98.67 C6.08 97.63, -1.33 91.17, 0 74 M0 74 C-2.44 54.42, -1.39 32.83, 0 24.67 M0 74 C-1.22 56.58, -0.58 36.95, 0 24.67 M0 24.67 C-0.86 9.28, 7.91 1.55, 24.67 0 M0 24.67 C-0.74 7.05, 6.73 -1.97, 24.67 0" stroke="#1e1e1e" stroke-width="1" fill="none"></path></g><g stroke-linecap="round" transform="translate(110 1707.3333333333333) rotate(0 740 49.33333333333337)"><path d="M24.67 0 C407.23 -1.34, 789.11 -1.15, 1455.33 0 M24.67 0 C575.53 -3.97, 1125.55 -3.54, 1455.33 0 M1455.33 0 C1472.82 -0.81, 1481.49 7.38, 1480 24.67 M1455.33 0 C1470.3 2.08, 1481.76 6.75, 1480 24.67 M1480 24.67 C1478.63 38.2, 1480.65 49.4, 1480 74 M1480 24.67 C1479.27 38.08, 1480.38 53.04, 1480 74 M1480 74 C1480.99 90.61, 1470.22 99.45, 1455.33 98.67 M1480 74 C1478.62 89.73, 1473.03 100.92, 1455.33 98.67 M1455.33 98.67 C890.08 101.78, 324.9 101.47, 24.67 98.67 M1455.33 98.67 C936.48 95.27, 417.95 95.44, 24.67 98.67 M24.67 98.67 C10 97.42, 1.23 92.15, 0 74 M24.67 98.67 C9.79 96.94, -1.75 89.89, 0 74 M0 74 C1.66 56.7, -1.07 34.62, 0 24.67 M0 74 C0.27 64.68, 0.97 54.72, 0 24.67 M0 24.67 C0.59 8.48, 9.9 -1.99, 24.67 0 M0 24.67 C0.64 9.76, 8.07 1.09, 24.67 0" stroke="#1e1e1e" stroke-width="1" fill="none"></path></g><g stroke-linecap="round" transform="translate(110 1806) rotate(0 740 49.33333333333337)"><path d="M24.67 0 C492.17 -0.92, 960.05 -1.58, 1455.33 0 M24.67 0 C544.68 4.88, 1065.15 4.62, 1455.33 0 M1455.33 0 C1473.27 -0.84, 1478.71 10.03, 1480 24.67 M1455.33 0 C1473.54 -1.48, 1479.01 7.09, 1480 24.67 M1480 24.67 C1480.62 40.56, 1479.32 56.33, 1480 74 M1480 24.67 C1480.52 42.25, 1480.3 58.44, 1480 74 M1480 74 C1478.45 91.23, 1470.58 98.05, 1455.33 98.67 M1480 74 C1481.25 92.7, 1473.96 100.89, 1455.33 98.67 M1455.33 98.67 C955.62 100.87, 457.02 101.33, 24.67 98.67 M1455.33 98.67 C1102.38 93.36, 749.02 93.3, 24.67 98.67 M24.67 98.67 C9.45 100.37, 1.36 88.94, 0 74 M24.67 98.67 C6.47 98.11, 1.88 88.56, 0 74 M0 74 C-1.78 56.92, -2.3 41.5, 0 24.67 M0 74 C0.62 58.5, 0.38 42.17, 0 24.67 M0 24.67 C1.67 6.23, 8.78 1.34, 24.67 0 M0 24.67 C-0.15 9.31, 8.46 0.65, 24.67 0" stroke="#1e1e1e" stroke-width="1" fill="none"></path></g><g stroke-linecap="round" transform="translate(110 1904.6666666666667) rotate(0 740 49.33333333333337)"><path d="M24.67 0 C374.27 1.21, 724.45 2.24, 1455.33 0 M24.67 0 C467.67 -4.19, 910.36 -3.9, 1455.33 0 M1455.33 0 C1470.24 1.03, 1479.28 7.03, 1480 24.67 M1455.33 0 C1473.67 -0.89, 1482.08 9.25, 1480 24.67 M1480 24.67 C1481.6 35.88, 1478.08 48.19, 1480 74 M1480 24.67 C1479 36.92, 1478.99 50.83, 1480 74 M1480 74 C1479.24 89.33, 1472.33 97.36, 1455.33 98.67 M1480 74 C1477.81 88.18, 1472.37 97.27, 1455.33 98.67 M1455.33 98.67 C1128.62 100.31, 801.55 100.48, 24.67 98.67 M1455.33 98.67 C1066.67 103.45, 678.73 103, 24.67 98.67 M24.67 98.67 C6.98 98.27, 1.99 89.86, 0 74 M24.67 98.67 C10.35 97.7, 0.51 90.33, 0 74 M0 74 C0.17 60.03, 1.88 47.65, 0 24.67 M0 74 C-0.68 55.37, -0.36 36.63, 0 24.67 M0 24.67 C-1.56 7.41, 8.57 -1.94, 24.67 0 M0 24.67 C-1.52 6.01, 8.3 1.64, 24.67 0" stroke="#1e1e1e" stroke-width="1" fill="none"></path></g><g stroke-linecap="round" transform="translate(110 2003.3333333333335) rotate(0 740 49.33333333333337)"><path d="M24.67 0 C417.99 2.45, 811.05 1.07, 1455.33 0 M24.67 0 C560.36 -0.8, 1096.39 -0.97, 1455.33 0 M1455.33 0 C1471.05 -1.19, 1481.65 7.45, 1480 24.67 M1455.33 0 C1473.86 1.03, 1478.79 6.45, 1480 24.67 M1480 24.67 C1478.95 40.46, 1479.68 57.71, 1480 74 M1480 24.67 C1478.6 43.12, 1479.16 59.87, 1480 74 M1480 74 C1480.55 89.13, 1469.87 96.7, 1455.33 98.67 M1480 74 C1480.59 89.04, 1470.13 97.1, 1455.33 98.67 M1455.33 98.67 C972.9 94.84, 490.07 95.56, 24.67 98.67 M1455.33 98.67 C912.42 101.64, 368.53 101.79, 24.67 98.67 M24.67 98.67 C10.21 98.08, 1.85 89.61, 0 74 M24.67 98.67 C8.73 98.55, -0.93 90.83, 0 74 M0 74 C1.9 57.48, 1.64 42.47, 0 24.67 M0 74 C-0.01 61.95, -0.45 48.22, 0 24.67 M0 24.67 C0.34 6.29, 6.9 -1.92, 24.67 0 M0 24.67 C0.08 9.86, 10.12 -0.28, 24.67 0" stroke="#1e1e1e" stroke-width="1" fill="none"></path></g><g stroke-linecap="round" transform="translate(110 1552.5) rotate(0 740 49.33333333333337)"><path d="M24.67 0 C332.15 -3.35, 639.39 -3.82, 1455.33 0 M24.67 0 C492.82 2.28, 961.8 1.9, 1455.33 0 M1455.33 0 C1473.24 1.44, 1479.66 6.39, 1480 24.67 M1455.33 0 C1473.45 0.4, 1479.35 10.29, 1480 24.67 M1480 24.67 C1480.27 35.41, 1479.99 47.17, 1480 74 M1480 24.67 C1478.76 43.76, 1479.45 62.71, 1480 74 M1480 74 C1478.06 89.48, 1473.02 99.69, 1455.33 98.67 M1480 74 C1479.9 89.78, 1469.66 97.97, 1455.33 98.67 M1455.33 98.67 C979.27 92.65, 503.2 93.72, 24.67 98.67 M1455.33 98.67 C1130.85 103.82, 806.67 103.92, 24.67 98.67 M24.67 98.67 C8.06 98.67, 0.64 89.8, 0 74 M24.67 98.67 C7.15 96.48, -1.55 90.23, 0 74 M0 74 C-1.36 54.18, -0.13 39.13, 0 24.67 M0 74 C0.18 55.04, -1.38 38.22, 0 24.67 M0 24.67 C-0.66 8.63, 9.96 -0.02, 24.67 0 M0 24.67 C-0.63 10.14, 9.85 0.56, 24.67 0" stroke="#1e1e1e" stroke-width="1" fill="none"></path></g><g stroke-linecap="round" transform="translate(110 1651.1666666666665) rotate(0 740 49.33333333333337)"><path d="M24.67 0 C542.17 -1.38, 1058.36 -0.31, 1455.33 0 M24.67 0 C399.34 -1.51, 773.66 -0.92, 1455.33 0 M1455.33 0 C1471.44 -1.83, 1481.46 8.57, 1480 24.67 M1455.33 0 C1471.13 2.07, 1478.8 8.36, 1480 24.67 M1480 24.67 C1480.02 41.41, 1481.6 61.04, 1480 74 M1480 24.67 C1479.22 43.42, 1478.55 60.03, 1480 74 M1480 74 C1481.25 91.47, 1471.69 98.09, 1455.33 98.67 M1480 74 C1477.88 89.74, 1472.53 97.59, 1455.33 98.67 M1455.33 98.67 C1162 95.24, 869.59 94.51, 24.67 98.67 M1455.33 98.67 C889.57 94.27, 324.55 94.46, 24.67 98.67 M24.67 98.67 C8.87 98.02, -0.93 88.54, 0 74 M24.67 98.67 C6.67 98.46, 1.53 90.68, 0 74 M0 74 C0.25 63.31, 1.75 51.85, 0 24.67 M0 74 C-1.25 62.34, -0.64 49.21, 0 24.67 M0 24.67 C1.74 8.21, 7.68 1.67, 24.67 0 M0 24.67 C1.63 8.78, 6.78 0.93, 24.67 0" stroke="#1e1e1e" stroke-width="1" fill="none"></path></g><g stroke-linecap="round" transform="translate(110 1749.833333333333) rotate(0 740 49.33333333333337)"><path d="M24.67 0 C480.44 3.06, 935.46 1.79, 1455.33 0 M24.67 0 C484.42 4.52, 943.51 3.87, 1455.33 0 M1455.33 0 C1473.23 0.35, 1479.44 10.02, 1480 24.67 M1455.33 0 C1470.58 0.14, 1481.82 8.5, 1480 24.67 M1480 24.67 C1481.53 34.77, 1481.26 44.98, 1480 74 M1480 24.67 C1478.88 41.4, 1480.48 59.61, 1480 74 M1480 74 C1479.91 89.86, 1469.93 98.06, 1455.33 98.67 M1480 74 C1480.75 89.36, 1469.58 97.58, 1455.33 98.67 M1455.33 98.67 C1124.04 102.14, 794.68 101.67, 24.67 98.67 M1455.33 98.67 C1131.18 95.96, 807.23 95.83, 24.67 98.67 M24.67 98.67 C7.29 96.77, -1.35 90.26, 0 74 M24.67 98.67 C9.75 98.91, -1.32 88.93, 0 74 M0 74 C1.44 65.28, -0.91 54.24, 0 24.67 M0 74 C0.13 62.62, 1.33 50.82, 0 24.67 M0 24.67 C-0.54 9.89, 9.64 0.49, 24.67 0 M0 24.67 C-1.44 9.15, 6.17 2.15, 24.67 0" stroke="#1e1e1e" stroke-width="1" fill="none"></path></g><g stroke-linecap="round" transform="translate(110 1848.5) rotate(0 740 49.33333333333337)"><path d="M24.67 0 C395.74 -5.86, 767.59 -4.7, 1455.33 0 M24.67 0 C347.88 -4.48, 671.52 -4.04, 1455.33 0 M1455.33 0 C1471.21 1.8, 1478.96 8.35, 1480 24.67 M1455.33 0 C1473.6 0.28, 1478.29 8.18, 1480 24.67 M1480 24.67 C1481.65 32.67, 1481.36 44.01, 1480 74 M1480 24.67 C1480.14 44.1, 1479.48 62.22, 1480 74 M1480 74 C1478.15 89.84, 1472.43 97.73, 1455.33 98.67 M1480 74 C1477.8 89.36, 1470.19 96.48, 1455.33 98.67 M1455.33 98.67 C934.65 96.43, 411.86 96.35, 24.67 98.67 M1455.33 98.67 C1093.96 98.54, 732.15 98.29, 24.67 98.67 M24.67 98.67 C6.87 98.48, 1.33 90.65, 0 74 M24.67 98.67 C6.9 97.16, -2 90.36, 0 74 M0 74 C-1.28 57.29, -1.65 36.22, 0 24.67 M0 74 C1.03 55.08, -0.11 37, 0 24.67 M0 24.67 C1.42 8.71, 6.97 0.81, 24.67 0 M0 24.67 C-2.06 10.38, 10.13 1.59, 24.67 0" stroke="#1e1e1e" stroke-width="1" fill="none"></path></g><g stroke-linecap="round" transform="translate(110 1947.166666666667) rotate(0 740 49.33333333333337)"><path d="M24.67 0 C587.44 4.35, 1149.28 4.3, 1455.33 0 M24.67 0 C557.01 5.31, 1088.65 5.6, 1455.33 0 M1455.33 0 C1470.74 0.12, 1481.58 8.46, 1480 24.67 M1455.33 0 C1470.07 -0.05, 1477.75 10, 1480 24.67 M1480 24.67 C1481.29 36.31, 1481.98 47.2, 1480 74 M1480 24.67 C1480.26 36.8, 1479.38 49.2, 1480 74 M1480 74 C1480.65 89.5, 1469.87 97.73, 1455.33 98.67 M1480 74 C1478.42 88.26, 1473.26 96.98, 1455.33 98.67 M1455.33 98.67 C1064.19 92.95, 673.85 93.66, 24.67 98.67 M1455.33 98.67 C1025.93 96.43, 596.63 96.77, 24.67 98.67 M24.67 98.67 C9.55 98.88, -1.15 89.13, 0 74 M24.67 98.67 C6.22 98.58, 1.47 92.08, 0 74 M0 74 C-1.07 52.91, 1.9 34.94, 0 24.67 M0 74 C-0.7 59.03, 0.28 42.63, 0 24.67 M0 24.67 C-1.25 9.03, 6.43 1.87, 24.67 0 M0 24.67 C1.9 9.81, 7.59 1.2, 24.67 0" stroke="#1e1e1e" stroke-width="1" fill="none"></path></g><g stroke-linecap="round" transform="translate(110 2045.8333333333335) rotate(0 740 49.33333333333337)"><path d="M24.67 0 C360.42 -3.98, 697.93 -4.7, 1455.33 0 M24.67 0 C322.86 -0.63, 621.07 -0.97, 1455.33 0 M1455.33 0 C1473.36 0.24, 1478.52 8.18, 1480 24.67 M1455.33 0 C1469.52 1.77, 1478.8 9.68, 1480 24.67 M1480 24.67 C1481.91 32.67, 1479.28 45.8, 1480 74 M1480 24.67 C1479.06 41.69, 1480.3 58.85, 1480 74 M1480 74 C1478.09 89.5, 1470.4 96.77, 1455.33 98.67 M1480 74 C1481.48 88.76, 1471.16 100.86, 1455.33 98.67 M1455.33 98.67 C1149.37 93.08, 844.16 93.4, 24.67 98.67 M1455.33 98.67 C1072.28 93.19, 690.04 93.27, 24.67 98.67 M24.67 98.67 C7.07 97.35, -1.74 90.37, 0 74 M24.67 98.67 C9.69 100.3, 2.05 89.37, 0 74 M0 74 C1.99 55.48, 0.73 40.03, 0 24.67 M0 74 C0.84 59.48, -0.49 44.88, 0 24.67 M0 24.67 C-1.79 10.09, 9.88 1.38, 24.67 0 M0 24.67 C-0.64 9.43, 10.41 -2.12, 24.67 0" stroke="#1e1e1e" stroke-width="1" fill="none"></path></g><g stroke-linecap="round"><g transform="translate(1010 2230) rotate(0 40.087504759659396 -0.09531080404883596)"><path d="M0.12 -0.04 C13.42 -0.05, 66.58 0.02, 79.9 0.03 M0 -0.19 C13.34 -0.26, 66.85 -0.2, 80.18 -0.21" stroke="#1e1e1e" stroke-width="1" fill="none"></path></g><g transform="translate(1010 2230) rotate(0 40.087504759659396 -0.09531080404883596)"><path d="M51.98 10.04 C62.01 6.14, 72.28 2.73, 80.18 -0.21 M51.98 10.04 C61.12 6.65, 70.63 3.44, 80.18 -0.21" stroke="#1e1e1e" stroke-width="1" fill="none"></path></g><g transform="translate(1010 2230) rotate(0 40.087504759659396 -0.09531080404883596)"><path d="M51.99 -10.48 C62.03 -7.02, 72.3 -3.06, 80.18 -0.21 M51.99 -10.48 C61.15 -7.12, 70.66 -3.58, 80.18 -0.21" stroke="#1e1e1e" stroke-width="1" fill="none"></path></g></g><mask></mask><g stroke-linecap="round" transform="translate(1010 2190) rotate(0 40 40)"><path d="M56.74 4.61 C63.19 7.2, 70.25 13.12, 74.27 19.29 C78.28 25.46, 80.96 34.53, 80.84 41.61 C80.71 48.68, 77.71 55.8, 73.51 61.73 C69.3 67.66, 62.38 74.35, 55.6 77.17 C48.81 79.99, 39.86 79.8, 32.79 78.65 C25.73 77.5, 18.35 74.79, 13.18 70.27 C8.01 65.76, 3.6 58.74, 1.78 51.55 C-0.04 44.35, 0.13 34.28, 2.26 27.11 C4.39 19.94, 9.16 12.93, 14.56 8.54 C19.96 4.15, 27.43 1.43, 34.65 0.77 C41.88 0.11, 53.71 3.68, 57.92 4.58 C62.13 5.49, 60.22 5.59, 59.92 6.2 M32.51 0.77 C39.3 -0.97, 49.61 0.74, 56.33 3.63 C63.05 6.51, 69.13 12.48, 72.84 18.06 C76.55 23.64, 78.48 29.85, 78.6 37.1 C78.71 44.34, 77.17 55, 73.53 61.53 C69.88 68.06, 63.23 73.32, 56.71 76.26 C50.19 79.2, 41.62 79.9, 34.43 79.16 C27.23 78.41, 18.97 76.07, 13.57 71.8 C8.16 67.54, 4 60.38, 1.98 53.56 C-0.04 46.74, -0.22 37.79, 1.45 30.89 C3.11 23.99, 6.75 17.21, 11.96 12.15 C17.17 7.09, 29.45 2.19, 32.71 0.54 C35.97 -1.12, 31.64 1.68, 31.53 2.21" stroke="#1e1e1e" stroke-width="1" fill="none"></path></g><g stroke-linecap="round" transform="translate(670 2190) rotate(11.309932474020195 40 40)"><path d="M43.6 -0.01 C50.55 0.12, 58.72 4.65, 64.47 9.08 C70.22 13.51, 75.56 20.07, 78.09 26.58 C80.62 33.08, 81.48 41.21, 79.64 48.11 C77.79 55.02, 72.16 62.99, 67.02 68.02 C61.89 73.06, 55.67 76.92, 48.81 78.3 C41.96 79.69, 32.82 78.94, 25.89 76.31 C18.96 73.69, 11.48 68.24, 7.24 62.56 C3 56.88, 0.7 49.24, 0.44 42.24 C0.18 35.23, 2.12 26.86, 5.67 20.52 C9.22 14.18, 14.77 7.53, 21.72 4.2 C28.67 0.86, 42.77 1.04, 47.35 0.51 C51.94 -0.02, 49.42 0.52, 49.25 1.02 M28.21 1.06 C34.67 -1.77, 44.79 -0.69, 51.51 1.29 C58.23 3.27, 63.8 7.72, 68.54 12.94 C73.28 18.17, 78.52 25.39, 79.95 32.65 C81.37 39.91, 79.82 49.81, 77.1 56.49 C74.39 63.17, 69.62 68.78, 63.66 72.74 C57.7 76.7, 48.61 79.89, 41.37 80.25 C34.12 80.62, 26.21 78.72, 20.19 74.94 C14.16 71.16, 8.57 64.07, 5.22 57.57 C1.87 51.06, -0.62 42.96, 0.09 35.88 C0.8 28.8, 4.6 20.86, 9.47 15.09 C14.34 9.31, 25.98 3.49, 29.33 1.26 C32.69 -0.98, 29.57 0.81, 29.6 1.7" stroke="#1e1e1e" stroke-width="1" fill="none"></path></g><g stroke-linecap="round"><g transform="translate(750 2230) rotate(0 -40.00470582884168 0.10239816612988761)"><path d="M0.01 0.11 C-13.32 0.12, -66.62 0.05, -79.94 0.01 M-0.16 0.05 C-13.51 0.08, -66.72 0.21, -80.02 0.2" stroke="#1e1e1e" stroke-width="1" fill="none"></path></g><g transform="translate(750 2230) rotate(0 -40.00470582884168 0.10239816612988761)"><path d="M-51.84 -10.09 C-60.67 -6.66, -69.93 -3.29, -80.02 0.2 M-51.84 -10.09 C-57.61 -8.1, -63.56 -5.96, -80.02 0.2" stroke="#1e1e1e" stroke-width="1" fill="none"></path></g><g transform="translate(750 2230) rotate(0 -40.00470582884168 0.10239816612988761)"><path d="M-51.82 10.43 C-60.65 7.27, -69.92 4.05, -80.02 0.2 M-51.82 10.43 C-57.57 8.14, -63.52 6, -80.02 0.2" stroke="#1e1e1e" stroke-width="1" fill="none"></path></g></g><mask></mask><g stroke-linecap="round" transform="translate(1410 1310) rotate(0 150 50)"><path d="M25 0 C89.65 -0.61, 156.1 1.71, 275 0 M25 0 C122.95 -1.3, 220.78 -0.45, 275 0 M275 0 C290.67 1.3, 301.62 10.02, 300 25 M275 0 C291.69 1.07, 300.22 10.63, 300 25 M300 25 C299.5 41.69, 298.95 58.25, 300 75 M300 25 C300.17 38.56, 299.38 50.22, 300 75 M300 75 C299 92, 292.19 99.96, 275 100 M300 75 C300.11 91.53, 290.55 99.51, 275 100 M275 100 C192.35 103.25, 110.15 101.03, 25 100 M275 100 C214.3 99.89, 154.47 99.91, 25 100 M25 100 C9.66 100.01, 0.26 93.07, 0 75 M25 100 C10.3 99.52, 0.27 91.27, 0 75 M0 75 C2.25 61.32, 1.29 44.31, 0 25 M0 75 C0.61 57.78, 0.83 40.48, 0 25 M0 25 C1.73 9.63, 9.58 1.4, 25 0 M0 25 C1.42 7.87, 10 1.86, 25 0" stroke="#1e1e1e" stroke-width="1" fill="none"></path></g><g transform="translate(1510 1350) rotate(0 54.66596984863281 22.5)"><text x="54.66596984863281" y="0" font-family="Virgil, Segoe UI Emoji" font-size="36px" fill="#1e1e1e" text-anchor="middle" style="white-space: pre;" direction="ltr" dominant-baseline="text-before-edge">Player</text></g></svg>
