<svg version="1.1" xmlns="http://www.w3.org/2000/svg" viewBox="0 0 920.0910084639697 520.2048146161096" width="920.0910084639697" height="520.2048146161096">
  <!-- svg-source:excalidraw -->
  
  <defs>
    <style class="style-fonts">
      @font-face {
        font-family: "Virgil";
        src: url("https://excalidraw.com/Virgil.woff2");
      }
      @font-face {
        font-family: "Cascadia";
        src: url("https://excalidraw.com/Cascadia.woff2");
      }
    </style>
    
  </defs>
  <rect x="0" y="0" width="920.0910084639697" height="520.2048146161096" fill="#ffffff"></rect><g stroke-linecap="round"><g transform="translate(310.10564075137836 10.132352744711909) rotate(0 -0.009209060643257772 249.97005456334293)"><path d="M0.04 -0.13 C0.06 83.21, 0.1 416.58, 0.1 499.92 M-0.12 0.12 C-0.1 83.49, 0.02 416.75, 0.03 500.07" stroke="#1e1e1e" stroke-width="2" fill="none"></path></g></g><mask></mask><g stroke-linecap="round"><g transform="translate(610.1056407513784 10.132352744711909) rotate(0 -0.03709105579999772 250.06397200891425)"><path d="M-0.03 0.13 C-0.05 83.47, -0.15 416.6, -0.12 499.92 M-0.21 0.07 C-0.2 83.44, 0.09 416.77, 0.14 500.06" stroke="#1e1e1e" stroke-width="2" fill="none"></path></g></g><mask></mask><g stroke-linecap="round"><g transform="translate(10.10564075137836 110.13235274471191) rotate(0 449.9398634806065 -0.02233295820805381)"><path d="M0.05 0.08 C150.06 0.06, 749.97 -0.11, 899.99 -0.13 M-0.11 0 C149.9 -0.01, 749.83 -0.02, 899.86 -0.01" stroke="#1e1e1e" stroke-width="2" fill="none"></path></g></g><mask></mask><g transform="translate(110.10564075137836 70.13235274471191) rotate(0 42.1875 21.599999999999994)"><text x="0" y="0" font-family="Cascadia, Segoe UI Emoji" font-size="36px" fill="#1e1e1e" text-anchor="start" style="white-space: pre;" direction="ltr" dominant-baseline="text-before-edge">User</text></g><g transform="translate(390.10564075137836 70.13235274471191) rotate(0 73.828125 21.599999999999994)"><text x="0" y="0" font-family="Cascadia, Segoe UI Emoji" font-size="36px" fill="#1e1e1e" text-anchor="start" style="white-space: pre;" direction="ltr" dominant-baseline="text-before-edge">Website</text></g><g transform="translate(690.1056407513784 70.13235274471191) rotate(0 63.28125 21.599999999999994)"><text x="0" y="0" font-family="Cascadia, Segoe UI Emoji" font-size="36px" fill="#1e1e1e" text-anchor="start" style="white-space: pre;" direction="ltr" dominant-baseline="text-before-edge">Server</text></g><g stroke-linecap="round" transform="translate(130.10564075137836 130.1323527447119) rotate(0 20 20)"><path d="M16.94 0.11 C20.93 -0.78, 26.63 0.45, 30.32 2.68 C34.01 4.9, 37.62 9.39, 39.07 13.47 C40.52 17.54, 40.57 23.08, 39.02 27.13 C37.47 31.18, 33.59 35.71, 29.77 37.77 C25.94 39.82, 20.26 40.29, 16.09 39.47 C11.92 38.65, 7.49 36.14, 4.76 32.85 C2.02 29.55, -0.32 24, -0.33 19.71 C-0.33 15.43, 1.78 10.4, 4.74 7.13 C7.69 3.85, 15.24 1.1, 17.42 0.05 C19.61 -1, 17.8 0.47, 17.86 0.82 M18.02 0.17 C22.02 -0.51, 27.65 1.35, 31.15 3.8 C34.64 6.25, 37.79 10.88, 38.98 14.87 C40.18 18.86, 39.99 23.85, 38.32 27.74 C36.65 31.63, 32.86 36.21, 28.95 38.19 C25.03 40.17, 18.93 40.6, 14.82 39.61 C10.71 38.62, 6.68 35.73, 4.29 32.26 C1.91 28.78, 0.35 23.21, 0.5 18.78 C0.66 14.36, 2.24 8.72, 5.21 5.69 C8.19 2.66, 16.17 1.41, 18.35 0.59 C20.53 -0.23, 18.36 0.52, 18.31 0.77" stroke="#1e1e1e" stroke-width="2" fill="none"></path></g><g stroke-linecap="round"><g transform="translate(150.10564075137836 170.1323527447119) rotate(0 -0.06086763152910635 20.001567431233383)"><path d="M-0.11 0.06 C-0.1 6.73, -0.08 33.37, -0.07 40.04 M0.09 -0.03 C0.09 6.59, -0.17 33.15, -0.21 39.8" stroke="#1e1e1e" stroke-width="2" fill="none"></path></g><g transform="translate(150.10564075137836 170.1323527447119) rotate(0 -0.06086763152910635 20.001567431233383)"><path d="M-6.9 20.95 C-5.42 24.66, -4.1 28.51, -0.21 39.8 M-6.9 20.95 C-4.5 27.66, -2 34.31, -0.21 39.8" stroke="#1e1e1e" stroke-width="2" fill="none"></path></g><g transform="translate(150.10564075137836 170.1323527447119) rotate(0 -0.06086763152910635 20.001567431233383)"><path d="M6.78 21.06 C5.48 24.74, 4.01 28.56, -0.21 39.8 M6.78 21.06 C4.31 27.75, 1.93 34.36, -0.21 39.8" stroke="#1e1e1e" stroke-width="2" fill="none"></path></g></g><mask></mask><g stroke-linecap="round" transform="translate(30.10564075137836 210.1323527447119) rotate(0 120 60)"><path d="M113.15 -0.15 C127.73 -1.44, 146.39 0.65, 161.07 3.39 C175.75 6.13, 190.02 11.15, 201.21 16.27 C212.4 21.39, 221.82 27.3, 228.21 34.1 C234.59 40.89, 238.82 49.22, 239.53 57.02 C240.25 64.83, 237.62 73.66, 232.49 80.92 C227.36 88.17, 219.08 94.89, 208.76 100.54 C198.45 106.19, 184.3 111.58, 170.6 114.81 C156.89 118.03, 141.82 119.65, 126.53 119.9 C111.23 120.14, 93.46 119.01, 78.84 116.29 C64.23 113.58, 49.97 108.79, 38.84 103.6 C27.7 98.41, 18.58 92.02, 12.05 85.15 C5.51 78.28, 0.64 70.06, -0.36 62.4 C-1.36 54.75, 0.82 46.28, 6.06 39.21 C11.31 32.14, 20.73 25.54, 31.11 19.97 C41.5 14.4, 54.02 9.01, 68.39 5.78 C82.75 2.56, 108.61 1.3, 117.3 0.61 C125.99 -0.07, 120.43 0.89, 120.52 1.66 M175.79 5.27 C189.59 7.9, 202.75 15.18, 212.6 21.46 C222.45 27.74, 230.41 35.63, 234.87 42.95 C239.32 50.27, 240.57 58.15, 239.32 65.37 C238.06 72.58, 234.37 79.47, 227.36 86.25 C220.34 93.03, 208.99 100.91, 197.22 106.05 C185.45 111.2, 171.49 114.87, 156.72 117.13 C141.94 119.39, 123.77 120.28, 108.56 119.63 C93.36 118.99, 78.72 116.9, 65.49 113.24 C52.25 109.59, 39.21 103.39, 29.16 97.7 C19.12 92.02, 10.01 86.22, 5.22 79.13 C0.42 72.03, -1.09 62.85, 0.39 55.14 C1.86 47.44, 7.09 39.75, 14.05 32.88 C21.01 26.01, 30.4 18.85, 42.13 13.9 C53.85 8.94, 69.55 5.45, 84.4 3.13 C99.25 0.8, 116.21 -0.76, 131.24 -0.06 C146.27 0.64, 167.23 6.18, 174.56 7.32 C181.9 8.46, 175.84 6.03, 175.25 6.78" stroke="#1e1e1e" stroke-width="2" fill="none"></path></g><g transform="translate(70.10564075137836 250.1323527447119) rotate(0 82.03125 24)"><text x="82.03125" y="0" font-family="Cascadia, Segoe UI Emoji" font-size="20px" fill="#1e1e1e" text-anchor="middle" style="white-space: pre;" direction="ltr" dominant-baseline="text-before-edge">Click on</text><text x="82.03125" y="24" font-family="Cascadia, Segoe UI Emoji" font-size="20px" fill="#1e1e1e" text-anchor="middle" style="white-space: pre;" direction="ltr" dominant-baseline="text-before-edge">Highscores Tab</text></g><g stroke-linecap="round"><g transform="translate(270.10564075137836 270.1323527447119) rotate(0 40.01096730985839 0.015151672469045252)"><path d="M-0.14 -0.11 C13.19 -0.13, 66.52 -0.1, 79.89 -0.09 M0.05 0.15 C13.44 0.15, 66.83 0.07, 80.17 0.05" stroke="#1e1e1e" stroke-width="2" fill="none"></path></g><g transform="translate(270.10564075137836 270.1323527447119) rotate(0 40.01096730985839 0.015151672469045252)"><path d="M51.99 10.35 C58.39 7.76, 65.05 5.71, 80.17 0.05 M51.99 10.35 C58.69 7.84, 65.7 5.36, 80.17 0.05" stroke="#1e1e1e" stroke-width="2" fill="none"></path></g><g transform="translate(270.10564075137836 270.1323527447119) rotate(0 40.01096730985839 0.015151672469045252)"><path d="M51.96 -10.17 C58.37 -7.94, 65.03 -5.17, 80.17 0.05 M51.96 -10.17 C58.68 -7.74, 65.69 -5.27, 80.17 0.05" stroke="#1e1e1e" stroke-width="2" fill="none"></path></g></g><mask></mask><g stroke-linecap="round" transform="translate(350.10564075137836 210.1323527447119) rotate(0 110 60)"><path d="M81.01 2.64 C93.51 -0.27, 110.08 -0.65, 124.16 0.39 C138.25 1.44, 153.19 5.12, 165.51 8.91 C177.84 12.7, 189.68 17.13, 198.1 23.14 C206.52 29.14, 212.4 37.5, 216.04 44.93 C219.67 52.35, 221.6 60.31, 219.92 67.71 C218.25 75.11, 213.16 82.8, 205.98 89.31 C198.8 95.82, 188.2 102.12, 176.84 106.76 C165.49 111.41, 151.47 114.9, 137.86 117.18 C124.25 119.46, 108.9 121.34, 95.18 120.44 C81.46 119.54, 67.74 115.84, 55.53 111.78 C43.31 107.72, 30.6 102.03, 21.9 96.08 C13.19 90.13, 6.84 83.38, 3.31 76.08 C-0.22 68.77, -1.28 59.82, 0.73 52.26 C2.73 44.7, 8.26 37.28, 15.33 30.72 C22.4 24.17, 31.05 17.93, 43.12 12.95 C55.19 7.96, 79.26 2.68, 87.74 0.81 C96.21 -1.07, 93.58 0.63, 93.96 1.68 M153.04 5.41 C166.2 7.06, 178.28 11.78, 187.79 16.84 C197.31 21.91, 204.92 28.41, 210.13 35.78 C215.34 43.16, 219 53.31, 219.05 61.09 C219.1 68.87, 215.82 75.48, 210.44 82.45 C205.05 89.41, 196.6 97.23, 186.74 102.89 C176.89 108.54, 163.89 113.31, 151.28 116.39 C138.67 119.46, 125.04 121.42, 111.11 121.33 C97.18 121.24, 80.98 119.08, 67.71 115.86 C54.43 112.64, 41.22 107.38, 31.46 102 C21.7 96.62, 14.3 90.42, 9.15 83.59 C4 76.76, 0.85 68.65, 0.58 61.03 C0.31 53.4, 2.46 44.98, 7.52 37.84 C12.58 30.7, 20.74 23.76, 30.94 18.18 C41.14 12.6, 55.44 7.32, 68.7 4.34 C81.97 1.36, 96.76 0.44, 110.55 0.3 C124.33 0.16, 144.8 2.56, 151.41 3.5 C158.02 4.44, 150.86 4.93, 150.21 5.93" stroke="#1e1e1e" stroke-width="2" fill="none"></path></g><g transform="translate(370.10564075137836 250.1323527447119) rotate(0 82.03125 24)"><text x="82.03125" y="0" font-family="Cascadia, Segoe UI Emoji" font-size="20px" fill="#1e1e1e" text-anchor="middle" style="white-space: pre;" direction="ltr" dominant-baseline="text-before-edge">Ask for</text><text x="82.03125" y="24" font-family="Cascadia, Segoe UI Emoji" font-size="20px" fill="#1e1e1e" text-anchor="middle" style="white-space: pre;" direction="ltr" dominant-baseline="text-before-edge">Highscore Data</text></g><g stroke-linecap="round"><g transform="translate(570.3079617275013 270.2000635594218) rotate(0 39.97022477580302 0.07486432256212083)"><path d="M-0.02 -0.07 C13.34 -0.07, 66.8 -0.05, 80.14 -0.05 M-0.2 0.21 C13.15 0.24, 66.74 0.14, 80.1 0.12" stroke="#1e1e1e" stroke-width="2" fill="none"></path></g><g transform="translate(570.3079617275013 270.2000635594218) rotate(0 39.97022477580302 0.07486432256212083)"><path d="M51.93 10.42 C59.73 7.81, 67.69 4.72, 80.1 0.12 M51.93 10.42 C59.64 7.64, 67.21 4.9, 80.1 0.12" stroke="#1e1e1e" stroke-width="2" fill="none"></path></g><g transform="translate(570.3079617275013 270.2000635594218) rotate(0 39.97022477580302 0.07486432256212083)"><path d="M51.89 -10.1 C59.69 -6.94, 67.67 -4.26, 80.1 0.12 M51.89 -10.1 C59.58 -7.37, 67.16 -4.6, 80.1 0.12" stroke="#1e1e1e" stroke-width="2" fill="none"></path></g></g><mask></mask><g stroke-linecap="round" transform="translate(650.3079617275013 210.1323527447119) rotate(0 110 60)"><path d="M125.92 1.6 C139.34 2.11, 154.69 5.8, 166.81 9.65 C178.92 13.5, 190.43 18.64, 198.62 24.7 C206.8 30.76, 212.59 38.55, 215.9 46 C219.22 53.44, 220.45 61.97, 218.52 69.35 C216.59 76.74, 211.49 83.64, 204.34 90.28 C197.19 96.93, 186.85 104.48, 175.63 109.24 C164.41 114, 150.76 117.22, 137.01 118.82 C123.25 120.42, 107.27 120.1, 93.09 118.84 C78.9 117.58, 63.71 115.25, 51.9 111.27 C40.08 107.28, 30.36 101.13, 22.17 94.91 C13.98 88.69, 6.09 81.4, 2.77 73.95 C-0.56 66.5, -0.1 57.64, 2.21 50.22 C4.52 42.8, 9.32 35.92, 16.61 29.44 C23.89 22.95, 34.58 15.93, 45.91 11.33 C57.23 6.73, 69.7 3.34, 84.57 1.82 C99.43 0.31, 125.46 1.8, 135.11 2.24 C144.75 2.68, 142.78 3.65, 142.42 4.48 M158.32 7.16 C170.83 9.27, 181.75 14.41, 190.99 19.69 C200.23 24.97, 209.03 31.6, 213.75 38.82 C218.48 46.05, 219.87 55, 219.34 63.05 C218.81 71.09, 216.54 79.94, 210.55 87.09 C204.56 94.23, 194.18 101.14, 183.41 105.92 C172.65 110.69, 159.25 113.25, 145.97 115.75 C132.69 118.26, 117.58 121.29, 103.72 120.96 C89.85 120.64, 75.57 117.47, 62.77 113.8 C49.98 110.13, 36.28 104.78, 26.94 98.96 C17.6 93.14, 11.45 85.89, 6.74 78.89 C2.03 71.9, -1.82 64.38, -1.31 56.98 C-0.8 49.59, 3.33 41.24, 9.79 34.52 C16.25 27.8, 26.79 21.85, 37.45 16.64 C48.11 11.43, 60.64 5.85, 73.73 3.27 C86.83 0.69, 102.16 0.7, 116.01 1.17 C129.85 1.64, 150.05 4.91, 156.82 6.09 C163.59 7.28, 157.4 7.45, 156.65 8.26" stroke="#1e1e1e" stroke-width="2" fill="none"></path></g><g transform="translate(670.3079617275013 250.1323527447119) rotate(0 82.03125 24)"><text x="82.03125" y="0" font-family="Cascadia, Segoe UI Emoji" font-size="20px" fill="#1e1e1e" text-anchor="middle" style="white-space: pre;" direction="ltr" dominant-baseline="text-before-edge">Provide</text><text x="82.03125" y="24" font-family="Cascadia, Segoe UI Emoji" font-size="20px" fill="#1e1e1e" text-anchor="middle" style="white-space: pre;" direction="ltr" dominant-baseline="text-before-edge">Highscore Data</text></g><g stroke-linecap="round" transform="translate(350.1899308520733 370.1323527447119) rotate(0 110 60)"><path d="M150.03 4.14 C163.28 5.99, 175.88 11.81, 185.82 16.94 C195.75 22.07, 203.82 28.06, 209.63 34.92 C215.43 41.78, 220.27 50.42, 220.65 58.12 C221.02 65.82, 216.87 74.09, 211.88 81.11 C206.89 88.12, 200.18 94.6, 190.68 100.2 C181.19 105.79, 167.91 111.39, 154.91 114.68 C141.92 117.98, 126.86 119.66, 112.71 119.97 C98.55 120.29, 83.14 119.43, 69.99 116.6 C56.84 113.78, 43.86 108.42, 33.81 103.03 C23.76 97.63, 15.48 91.05, 9.69 84.24 C3.9 77.43, -0.49 69.88, -0.93 62.16 C-1.37 54.43, 1.82 44.93, 7.06 37.88 C12.3 30.82, 20.94 25.15, 30.52 19.82 C40.1 14.49, 51.75 9.25, 64.54 5.91 C77.34 2.56, 92.17 -0.01, 107.31 -0.25 C122.44 -0.49, 146.45 3.11, 155.36 4.46 C164.27 5.81, 161.55 6.87, 160.77 7.85 M150.3 4.65 C163.65 6.41, 176.95 10.99, 186.89 16.06 C196.84 21.13, 204.26 27.98, 209.99 35.08 C215.73 42.18, 221.11 50.62, 221.29 58.64 C221.47 66.66, 216.38 75.85, 211.1 83.19 C205.82 90.54, 199 97.3, 189.59 102.71 C180.19 108.13, 167.36 112.79, 154.66 115.68 C141.97 118.56, 127.46 119.82, 113.42 120.03 C99.37 120.23, 83.7 119.87, 70.4 116.92 C57.11 113.97, 43.92 107.58, 33.65 102.33 C23.37 97.08, 14.52 92.19, 8.74 85.42 C2.97 78.65, -1.03 69.77, -1 61.72 C-0.97 53.67, 3.76 44.27, 8.94 37.14 C14.12 30.01, 20.54 24.52, 30.08 18.93 C39.62 13.34, 53.24 6.6, 66.18 3.6 C79.13 0.6, 93.96 0.84, 107.76 0.93 C121.56 1.02, 142 3.33, 148.97 4.14 C155.94 4.95, 150.21 5.07, 149.59 5.78" stroke="#1e1e1e" stroke-width="2" fill="none"></path></g><g transform="translate(370.1899308520733 410.1323527447119) rotate(0 82.03125 24)"><text x="82.03125" y="0" font-family="Cascadia, Segoe UI Emoji" font-size="20px" fill="#1e1e1e" text-anchor="middle" style="white-space: pre;" direction="ltr" dominant-baseline="text-before-edge">View</text><text x="82.03125" y="24" font-family="Cascadia, Segoe UI Emoji" font-size="20px" fill="#1e1e1e" text-anchor="middle" style="white-space: pre;" direction="ltr" dominant-baseline="text-before-edge">Highscore Data</text></g><g stroke-linecap="round"><g transform="translate(670.1056407513784 310.1323527447119) rotate(0 -48.98055299815721 49.96201245954726)"><path d="M-0.39 -0.1 C-16.82 16.6, -82.68 84.46, -99.09 101.13 M1.61 -1.2 C-14.86 15.12, -82.79 82.54, -99.57 99.59" stroke="#1e1e1e" stroke-width="2" fill="none"></path></g><g transform="translate(670.1056407513784 310.1323527447119) rotate(0 -48.98055299815721 49.96201245954726)"><path d="M-86.92 72.39 C-90.16 80.88, -91.37 88.25, -99.57 99.59 M-86.92 72.39 C-90.23 79.75, -93.97 88.12, -99.57 99.59" stroke="#1e1e1e" stroke-width="2" fill="none"></path></g><g transform="translate(670.1056407513784 310.1323527447119) rotate(0 -48.98055299815721 49.96201245954726)"><path d="M-72.39 86.88 C-79.48 91.58, -84.45 95.21, -99.57 99.59 M-72.39 86.88 C-79.89 89.9, -87.85 94.05, -99.57 99.59" stroke="#1e1e1e" stroke-width="2" fill="none"></path></g></g><mask></mask><g stroke-linecap="round"><g transform="translate(350.10564075137836 430.1323527447119) rotate(0 -80.10809118143086 -0.05885787651855168)"><path d="M-0.02 0.01 C-26.71 -0.01, -133.38 -0.12, -160.06 -0.13 M-0.2 -0.11 C-26.92 -0.12, -133.53 -0.04, -160.2 -0.01" stroke="#1e1e1e" stroke-width="2" fill="none"></path></g><g transform="translate(350.10564075137836 430.1323527447119) rotate(0 -80.10809118143086 -0.05885787651855168)"><path d="M-132.02 -10.3 C-142.04 -6.74, -152.37 -3.12, -160.2 -0.01 M-132.02 -10.3 C-139.54 -7.45, -147.21 -4.86, -160.2 -0.01" stroke="#1e1e1e" stroke-width="2" fill="none"></path></g><g transform="translate(350.10564075137836 430.1323527447119) rotate(0 -80.10809118143086 -0.05885787651855168)"><path d="M-132 10.22 C-142.03 6.46, -152.36 2.77, -160.2 -0.01 M-132 10.22 C-139.51 7.59, -147.18 4.69, -160.2 -0.01" stroke="#1e1e1e" stroke-width="2" fill="none"></path></g></g><mask></mask><g stroke-linecap="round" transform="translate(130.10564075137836 410.1323527447119) rotate(0 30 30)"><path d="M43.12 3.86 C48.82 6.66, 54.92 13.74, 57.58 19.64 C60.23 25.54, 60.98 33.28, 59.03 39.24 C57.08 45.2, 51.31 52.15, 45.87 55.42 C40.43 58.69, 32.65 59.69, 26.4 58.86 C20.16 58.03, 12.96 55.11, 8.41 50.44 C3.85 45.76, -0.75 37.38, -0.94 30.81 C-1.13 24.24, 3.07 15.98, 7.28 11.01 C11.5 6.03, 17.95 1.94, 24.35 0.98 C30.76 0.01, 41.68 4.24, 45.72 5.2 C49.76 6.16, 48.92 6.35, 48.59 6.73 M26.99 -1.33 C33.22 -2.31, 42.24 0.93, 47.46 5.1 C52.68 9.27, 56.96 17.13, 58.32 23.67 C59.68 30.21, 58.16 38.52, 55.61 44.35 C53.07 50.17, 48.9 56.27, 43.05 58.64 C37.21 61.01, 26.73 60.64, 20.54 58.56 C14.35 56.48, 9.08 51.7, 5.92 46.16 C2.75 40.61, 0.9 31.58, 1.52 25.28 C2.14 18.97, 4.97 12.47, 9.62 8.32 C14.26 4.16, 26.26 1.85, 29.37 0.34 C32.48 -1.17, 28.23 -1.33, 28.28 -0.75" stroke="#1e1e1e" stroke-width="2" fill="none"></path></g><g stroke-linecap="round" transform="translate(150.10564075137836 430.1323527447119) rotate(0 10 10)"><path d="M10.53 -0.1 C12.62 -0.14, 15.26 1.16, 16.81 2.63 C18.36 4.09, 19.51 6.58, 19.81 8.7 C20.12 10.81, 19.79 13.51, 18.64 15.32 C17.5 17.13, 15.01 18.92, 12.94 19.55 C10.87 20.18, 8.19 19.93, 6.24 19.09 C4.29 18.26, 2.29 16.41, 1.25 14.54 C0.22 12.66, -0.38 9.96, 0.03 7.87 C0.45 5.78, 1.98 3.35, 3.73 2.01 C5.47 0.67, 9.34 0.12, 10.49 -0.15 C11.63 -0.43, 10.57 0.19, 10.58 0.36 M10.14 -0.25 C12.15 -0.39, 14.72 0.88, 16.37 2.29 C18.03 3.69, 19.66 6.14, 20.05 8.2 C20.44 10.25, 19.77 12.73, 18.72 14.61 C17.68 16.5, 15.77 18.66, 13.8 19.51 C11.82 20.37, 8.97 20.48, 6.89 19.73 C4.81 18.98, 2.43 16.84, 1.31 14.99 C0.19 13.14, -0.22 10.71, 0.16 8.65 C0.54 6.59, 1.97 4.03, 3.59 2.62 C5.21 1.22, 8.83 0.58, 9.91 0.22 C10.99 -0.15, 10.09 0.36, 10.09 0.45" stroke="#1e1e1e" stroke-width="2" fill="none"></path></g></svg>
